<?xml version="1.0" encoding="UTF-8"?>
<svg id="Layer_1" data-name="Layer 1" xmlns="http://www.w3.org/2000/svg" viewBox="0 0 92.24 60.93">
  <defs>
    <style>
      .cls-1 {
        fill: #ef9926;
      }

      .cls-2 {
        fill: #1c75bc;
      }
    </style>
  </defs>
  <path class="cls-2" d="M19.55,16.13c2.44-1.3,5.24-1.95,8.39-1.95,3.75,0,7.14.95,10.18,2.85,3.04,1.9,5.44,4.62,7.21,8.15,1.76,3.53,2.65,7.63,2.65,12.3s-.88,8.79-2.65,12.34c-1.77,3.56-4.17,6.3-7.21,8.23-3.04,1.93-6.43,2.89-10.18,2.89-3.21,0-6-.64-8.39-1.91-2.39-1.28-4.26-2.97-5.62-5.09v6.35H0V0h13.93v21.26c1.3-2.12,3.18-3.83,5.62-5.13ZM30.91,29.28c-1.93-1.98-4.3-2.97-7.13-2.97s-5.12,1.01-7.05,3.01c-1.93,2.01-2.89,4.75-2.89,8.23s.96,6.22,2.89,8.23c1.93,2.01,4.28,3.01,7.05,3.01s5.13-1.02,7.09-3.05c1.95-2.04,2.93-4.79,2.93-8.27s-.96-6.2-2.89-8.19Z"/>
  <path class="cls-1" d="M56.49,57.06c-3.29-2.53-4.93-5.91-4.93-10.14,0-.81.02-1.41.08-1.79h7.33c-.16,2.66.65,4.94,2.44,6.84,1.79,1.9,4.53,2.85,8.23,2.85s6.62-.84,8.8-2.52,3.26-4.05,3.26-7.09c0-1.84-.53-3.41-1.59-4.68-1.06-1.27-2.36-2.33-3.91-3.18-1.55-.84-3.65-1.78-6.31-2.81-3.26-1.3-5.88-2.53-7.86-3.67-1.98-1.14-3.65-2.69-5.01-4.64s-1.98-4.43-1.87-7.41c0-3.15.84-5.95,2.52-8.39s4-4.33,6.97-5.66c2.96-1.33,6.34-2,10.14-2s6.88.62,9.57,1.87c2.69,1.25,4.71,2.99,6.07,5.21,1.36,2.23,1.95,4.72,1.79,7.49h-7.74c.11-1.41-.2-2.77-.94-4.07-.73-1.3-1.87-2.36-3.42-3.18-1.55-.82-3.46-1.22-5.74-1.22-3.53,0-6.37.83-8.51,2.48-2.15,1.66-3.22,3.92-3.22,6.8,0,1.68.5,3.14,1.51,4.36,1,1.22,2.27,2.25,3.79,3.1,1.52.84,3.61,1.83,6.27,2.97,3.2,1.36,5.82,2.62,7.86,3.79,2.04,1.17,3.76,2.73,5.17,4.68,1.41,1.95,2.12,4.4,2.12,7.33,0,3.15-.82,5.96-2.44,8.43s-3.96,4.43-7,5.86c-3.04,1.44-6.57,2.16-10.59,2.16-5.27,0-9.55-1.26-12.83-3.79Z"/>
</svg>