<?xml version="1.0" encoding="UTF-8"?>
<svg id="Layer_1" data-name="Layer 1" xmlns="http://www.w3.org/2000/svg" viewBox="0 0 87.96 15.25">
  <defs>
    <style>
      .cls-1 {
        fill: #ef9926;
      }

      .cls-2 {
        fill: #1c75bc;
      }
    </style>
  </defs>
  <path class="cls-2" d="M3.46,3.73c.43-.23.93-.35,1.48-.35.66,0,1.26.17,1.8.5.54.34.96.82,1.27,1.44.31.62.47,1.35.47,2.17s-.16,1.55-.47,2.18c-.31.63-.74,1.11-1.27,1.46-.54.34-1.14.51-1.8.51-.57,0-1.06-.11-1.48-.34-.42-.22-.75-.53-.99-.9v1.12H0V.88h2.46v3.76c.23-.38.56-.68.99-.91ZM5.46,6.06c-.34-.35-.76-.53-1.26-.53s-.91.18-1.25.53c-.34.35-.51.84-.51,1.45s.17,1.1.51,1.45c.34.36.76.53,1.25.53s.91-.18,1.25-.54c.34-.36.52-.85.52-1.46s-.17-1.1-.51-1.45Z"/>
  <path class="cls-2" d="M9.53,2.28c-.27-.25-.41-.57-.41-.94s.14-.7.41-.96c.27-.25.63-.38,1.06-.38s.77.13,1.04.38c.27.25.41.57.41.96s-.14.69-.41.94c-.27.25-.62.38-1.04.38s-.78-.13-1.06-.38ZM11.81,3.5v8.04h-2.46V3.5h2.46Z"/>
  <path class="cls-2" d="M16.62,3.73c.43-.23.93-.35,1.48-.35.66,0,1.26.17,1.8.5.54.34.96.82,1.27,1.44.31.62.47,1.35.47,2.17s-.16,1.55-.47,2.18c-.31.63-.74,1.11-1.27,1.46-.54.34-1.14.51-1.8.51-.57,0-1.06-.11-1.48-.34-.42-.22-.75-.53-.99-.9v1.12h-2.46V.88h2.46v3.76c.23-.38.56-.68.99-.91ZM18.63,6.06c-.34-.35-.76-.53-1.26-.53s-.91.18-1.25.53c-.34.35-.51.84-.51,1.45s.17,1.1.51,1.45c.34.36.76.53,1.25.53s.91-.18,1.25-.54c.34-.36.52-.85.52-1.46s-.17-1.1-.51-1.45Z"/>
  <path class="cls-2" d="M24.97.88v10.66h-2.46V.88h2.46Z"/>
  <path class="cls-2" d="M26.5,2.28c-.27-.25-.41-.57-.41-.94s.14-.7.41-.96c.27-.25.63-.38,1.06-.38s.77.13,1.04.38c.27.25.41.57.41.96s-.14.69-.41.94c-.27.25-.62.38-1.04.38s-.78-.13-1.06-.38ZM28.79,3.5v8.04h-2.46V3.5h2.46Z"/>
  <path class="cls-2" d="M31.67,11.15c-.63-.34-1.12-.82-1.48-1.44-.36-.62-.54-1.35-.54-2.19s.18-1.55.55-2.18.86-1.11,1.5-1.45,1.34-.5,2.13-.5,1.5.17,2.13.5,1.13.82,1.5,1.45c.37.63.55,1.36.55,2.18s-.19,1.55-.55,2.18c-.37.63-.87,1.11-1.51,1.45-.64.34-1.35.5-2.14.5s-1.5-.17-2.12-.5ZM35,9c.33-.35.5-.84.5-1.48s-.16-1.14-.48-1.48c-.32-.35-.72-.52-1.19-.52s-.88.17-1.2.51c-.32.34-.47.84-.47,1.49s.16,1.14.47,1.48c.31.35.7.52,1.17.52s.87-.17,1.2-.52Z"/>
  <path class="cls-1" d="M39.52,10.97c-.58-.45-.87-1.04-.87-1.79,0-.14,0-.25.01-.32h1.3c-.03.47.12.87.43,1.21.32.34.8.5,1.46.5s1.17-.15,1.56-.45c.38-.3.58-.71.58-1.25,0-.33-.09-.6-.28-.83s-.42-.41-.69-.56c-.27-.15-.65-.31-1.12-.5-.58-.23-1.04-.45-1.39-.65-.35-.2-.65-.48-.89-.82s-.35-.78-.33-1.31c0-.56.15-1.05.45-1.48.3-.43.71-.77,1.23-1,.52-.23,1.12-.35,1.79-.35s1.22.11,1.69.33c.47.22.83.53,1.07.92.24.39.34.83.32,1.33h-1.37c.02-.25-.04-.49-.17-.72s-.33-.42-.6-.56c-.27-.14-.61-.22-1.02-.22-.62,0-1.13.15-1.5.44s-.57.69-.57,1.2c0,.3.09.55.27.77s.4.4.67.55c.27.15.64.32,1.11.53.57.24,1.03.46,1.39.67.36.21.66.48.91.83.25.35.38.78.38,1.3,0,.56-.14,1.05-.43,1.49s-.7.78-1.24,1.04c-.54.25-1.16.38-1.87.38-.93,0-1.69-.22-2.27-.67Z"/>
  <path class="cls-1" d="M48.23,3.64l1.34,6.37,3.59-6.37h1.35l-6.8,11.61h-1.37l2.23-3.8-1.8-7.8h1.46Z"/>
  <path class="cls-1" d="M54.74,11.07c-.53-.39-.79-.92-.79-1.58,0-.12,0-.22.01-.27h1.28c-.04.41.08.75.37,1.01.28.26.69.39,1.23.39s.97-.1,1.3-.31c.33-.21.5-.5.5-.87,0-.32-.13-.57-.4-.75-.27-.18-.68-.38-1.24-.59-.49-.18-.89-.36-1.21-.52-.32-.16-.59-.39-.81-.68-.22-.29-.33-.66-.33-1.12s.13-.84.38-1.18c.25-.35.61-.61,1.07-.8s.98-.28,1.56-.28c.81,0,1.47.2,1.99.61s.78.93.78,1.58c0,.12,0,.22-.01.29h-1.25v-.17c.01-.38-.13-.69-.42-.92-.29-.22-.68-.34-1.16-.34s-.86.11-1.16.32c-.3.21-.45.5-.45.85s.14.6.42.79c.28.19.71.4,1.3.63.49.19.88.37,1.18.53.3.16.55.38.76.65.21.28.32.63.32,1.05,0,.46-.14.86-.41,1.21-.27.34-.65.61-1.13.79-.48.18-1.02.27-1.63.27-.83,0-1.5-.2-2.03-.59Z"/>
  <path class="cls-1" d="M63.06,9.38c-.03.14-.04.27-.04.38,0,.24.07.41.22.52.15.11.39.16.73.16h.96l-.2,1.11h-1.18c-.62,0-1.09-.12-1.4-.36-.31-.24-.47-.63-.47-1.18,0-.21.02-.42.06-.62l.82-4.65h-1.01l.19-1.08h1.02l.35-1.99h1.32l-.35,1.99h2.05l-.19,1.08h-2.06l-.82,4.65Z"/>
  <path class="cls-1" d="M72.43,3.9c.48.25.85.61,1.11,1.07.25.46.38.98.38,1.56,0,.2-.02.45-.07.73-.04.25-.1.51-.19.78h-6.31c-.02.19-.03.33-.03.42,0,.66.2,1.18.6,1.55.4.37.92.55,1.56.55.57,0,1.06-.13,1.49-.4.43-.26.75-.62.97-1.06h1.41c-.35.76-.88,1.38-1.59,1.85-.71.47-1.54.71-2.48.71-.99,0-1.78-.29-2.38-.86-.6-.57-.9-1.35-.9-2.34,0-.28.03-.58.09-.89.14-.82.44-1.53.88-2.15s.99-1.09,1.63-1.42c.65-.33,1.35-.5,2.11-.5.66,0,1.24.13,1.72.38ZM72.57,6.55c0-.61-.19-1.09-.58-1.43-.39-.34-.9-.5-1.52-.5-.67,0-1.28.22-1.83.66s-.92,1.04-1.11,1.81h5c.03-.19.04-.37.04-.53Z"/>
  <path class="cls-1" d="M87.23,4.16c.48.44.73,1.07.73,1.91,0,.31-.02.58-.07.82l-.82,4.65h-1.3l.79-4.46c.04-.2.06-.42.06-.65,0-.58-.16-1.03-.47-1.33-.31-.3-.75-.45-1.32-.45-.65,0-1.21.2-1.68.6-.47.4-.79.97-.96,1.72l-.82,4.58h-1.3l.79-4.46c.04-.22.06-.44.06-.66,0-.58-.16-1.01-.47-1.32-.31-.3-.75-.45-1.32-.45-.68,0-1.26.22-1.74.66-.48.44-.79,1.07-.94,1.89v-.03l-.78,4.38h-1.31l1.4-7.89h1.31l-.2,1.14c.33-.41.73-.73,1.21-.95s.98-.33,1.51-.33c.66,0,1.22.15,1.68.45s.76.73.9,1.31c.33-.56.77-.99,1.33-1.3.56-.31,1.15-.46,1.78-.46.81,0,1.45.22,1.94.66Z"/>
</svg>